<svg width="80" height="45" viewBox="0 0 80 45" fill="none" xmlns="http://www.w3.org/2000/svg">
<g clip-path="url(#clip0_118_5)">
<path d="M0 0.71179C0 0.249166 0.254219 0 0.725326 0H17.3785C18.1038 0 18.6487 0.213445 19.1562 0.71179L23.4006 4.87192C23.909 5.3694 24.1269 5.90346 24.1269 6.61439V14.5801C24.1269 21.3008 20.462 24.8928 13.6052 24.8928H0.725326C0.25333 24.8928 0 24.6437 0 24.181V0.710918V0.71179ZM5.15194 20.697H14.2585C17.814 20.697 19.7002 18.8116 19.7002 15.3624V4.90765C19.7002 4.44589 19.446 4.19672 18.9749 4.19672H5.15194C4.68084 4.19672 4.42662 4.44589 4.42662 4.90765V19.9852C4.42662 20.447 4.68084 20.697 5.15194 20.697ZM28.2628 0.71179C28.2628 0.249166 28.517 0 28.9882 0H46.9106C47.6368 0 48.1808 0.177724 48.7248 0.71179L51.6998 3.62781C52.2074 4.12528 52.4252 4.65935 52.4252 5.37027V8.42914C52.4252 9.14008 52.2074 9.67328 51.6998 10.1716L49.9941 11.8427C49.7763 12.0561 49.6314 12.1981 49.6314 12.3759C49.6314 12.6607 49.8492 12.8376 50.0306 13.0162L50.539 13.478C51.8447 14.6873 52.4252 15.9313 52.4252 17.5675C52.4252 22.2966 49.4137 24.8928 44.5524 24.8928H28.9882C28.5162 24.8928 28.2628 24.6437 28.2628 24.181V0.710918V0.71179ZM33.4147 10.562H47.2742C47.7462 10.562 47.9994 10.3127 47.9994 9.85102V4.90765C47.9994 4.44589 47.7453 4.19672 47.2742 4.19672H33.4147C32.9427 4.19672 32.6886 4.44589 32.6886 4.90765V9.85102C32.6886 10.3127 32.9427 10.562 33.4147 10.562ZM33.4147 20.697H44.7702C46.8386 20.697 47.9994 19.5234 47.9994 17.4255V17.3541C47.9994 15.4696 46.8386 14.2603 44.7702 14.2603H33.4147C32.9427 14.2603 32.6886 14.5095 32.6886 14.9721V19.9861C32.6886 20.4478 32.9427 20.6979 33.4147 20.6979V20.697ZM55.8722 14.5801V6.65011C55.8722 5.93831 56.0901 5.40512 56.5976 4.90765L60.8784 0.71179C61.3869 0.214316 61.9309 0 62.6562 0H73.2143C73.9396 0 74.4481 0.177724 74.9921 0.71179L79.2374 4.87192C79.7814 5.40512 79.9991 5.90346 79.9991 6.61439V9.06781C79.9991 9.53039 79.7449 9.77961 79.2738 9.77961H76.2987C75.8267 9.77961 75.5734 9.53039 75.5734 9.06781V4.90765C75.5734 4.44589 75.3192 4.19672 74.8481 4.19672H61.0251C60.5531 4.19672 60.2998 4.44589 60.2998 4.90765V15.2562C60.2998 18.5991 62.186 20.8033 65.8508 20.8033H70.4223C74.0143 20.8033 75.5742 19.0966 75.5742 16.1448V15.8251C75.5742 15.3624 75.8285 15.1133 76.2996 15.1133H79.2746C79.7458 15.1133 80 15.3624 80 15.8251V15.8608C80 21.6571 76.0818 25 69.9139 25H66.3948C60.4082 25 55.8731 22.0134 55.8731 14.5809L55.8722 14.5801Z" fill="white"/>
</g>
<path d="M13.016 32.524V35.32H16.064V36.22H13.016V39.1H16.424V40H11.924V31.624H16.424V32.524H13.016ZM19.1683 31.12V40H18.0763V31.12H19.1683ZM27.0295 36.46C27.0295 36.668 27.0175 36.888 26.9935 37.12H21.7375C21.7775 37.768 21.9975 38.276 22.3975 38.644C22.8055 39.004 23.2975 39.184 23.8735 39.184C24.3455 39.184 24.7375 39.076 25.0495 38.86C25.3695 38.636 25.5935 38.34 25.7215 37.972H26.8975C26.7215 38.604 26.3695 39.12 25.8415 39.52C25.3135 39.912 24.6575 40.108 23.8735 40.108C23.2495 40.108 22.6895 39.968 22.1935 39.688C21.7055 39.408 21.3215 39.012 21.0415 38.5C20.7615 37.98 20.6215 37.38 20.6215 36.7C20.6215 36.02 20.7575 35.424 21.0295 34.912C21.3015 34.4 21.6815 34.008 22.1695 33.736C22.6655 33.456 23.2335 33.316 23.8735 33.316C24.4975 33.316 25.0495 33.452 25.5295 33.724C26.0095 33.996 26.3775 34.372 26.6335 34.852C26.8975 35.324 27.0295 35.86 27.0295 36.46ZM25.9015 36.232C25.9015 35.816 25.8095 35.46 25.6255 35.164C25.4415 34.86 25.1895 34.632 24.8695 34.48C24.5575 34.32 24.2095 34.24 23.8255 34.24C23.2735 34.24 22.8015 34.416 22.4095 34.768C22.0255 35.12 21.8055 35.608 21.7495 36.232H25.9015ZM29.8029 34.324V38.2C29.8029 38.52 29.8709 38.748 30.0069 38.884C30.1429 39.012 30.3789 39.076 30.7149 39.076H31.5189V40H30.5349C29.9269 40 29.4709 39.86 29.1669 39.58C28.8629 39.3 28.7109 38.84 28.7109 38.2V34.324H27.8589V33.424H28.7109V31.768H29.8029V33.424H31.5189V34.324H29.8029ZM33.934 34.492C34.126 34.116 34.398 33.824 34.75 33.616C35.11 33.408 35.546 33.304 36.058 33.304V34.432H35.77C34.546 34.432 33.934 35.096 33.934 36.424V40H32.842V33.424H33.934V34.492ZM40.1865 40.108C39.5705 40.108 39.0105 39.968 38.5065 39.688C38.0105 39.408 37.6185 39.012 37.3305 38.5C37.0505 37.98 36.9105 37.38 36.9105 36.7C36.9105 36.028 37.0545 35.436 37.3425 34.924C37.6385 34.404 38.0385 34.008 38.5425 33.736C39.0465 33.456 39.6105 33.316 40.2345 33.316C40.8585 33.316 41.4225 33.456 41.9265 33.736C42.4305 34.008 42.8265 34.4 43.1145 34.912C43.4105 35.424 43.5585 36.02 43.5585 36.7C43.5585 37.38 43.4065 37.98 43.1025 38.5C42.8065 39.012 42.4025 39.408 41.8905 39.688C41.3785 39.968 40.8105 40.108 40.1865 40.108ZM40.1865 39.148C40.5785 39.148 40.9465 39.056 41.2905 38.872C41.6345 38.688 41.9105 38.412 42.1185 38.044C42.3345 37.676 42.4425 37.228 42.4425 36.7C42.4425 36.172 42.3385 35.724 42.1305 35.356C41.9225 34.988 41.6505 34.716 41.3145 34.54C40.9785 34.356 40.6145 34.264 40.2225 34.264C39.8225 34.264 39.4545 34.356 39.1185 34.54C38.7905 34.716 38.5265 34.988 38.3265 35.356C38.1265 35.724 38.0265 36.172 38.0265 36.7C38.0265 37.236 38.1225 37.688 38.3145 38.056C38.5145 38.424 38.7785 38.7 39.1065 38.884C39.4345 39.06 39.7945 39.148 40.1865 39.148ZM48.1983 33.304C48.9983 33.304 49.6463 33.548 50.1423 34.036C50.6383 34.516 50.8863 35.212 50.8863 36.124V40H49.8063V36.28C49.8063 35.624 49.6423 35.124 49.3143 34.78C48.9863 34.428 48.5383 34.252 47.9703 34.252C47.3943 34.252 46.9343 34.432 46.5903 34.792C46.2543 35.152 46.0863 35.676 46.0863 36.364V40H44.9943V33.424H46.0863V34.36C46.3023 34.024 46.5943 33.764 46.9623 33.58C47.3383 33.396 47.7503 33.304 48.1983 33.304ZM53.2341 32.356C53.0261 32.356 52.8501 32.284 52.7061 32.14C52.5621 31.996 52.4901 31.82 52.4901 31.612C52.4901 31.404 52.5621 31.228 52.7061 31.084C52.8501 30.94 53.0261 30.868 53.2341 30.868C53.4341 30.868 53.6021 30.94 53.7381 31.084C53.8821 31.228 53.9541 31.404 53.9541 31.612C53.9541 31.82 53.8821 31.996 53.7381 32.14C53.6021 32.284 53.4341 32.356 53.2341 32.356ZM53.7621 33.424V40H52.6701V33.424H53.7621ZM55.2152 36.7C55.2152 36.02 55.3512 35.428 55.6232 34.924C55.8952 34.412 56.2712 34.016 56.7512 33.736C57.2392 33.456 57.7952 33.316 58.4192 33.316C59.2272 33.316 59.8912 33.512 60.4112 33.904C60.9392 34.296 61.2872 34.84 61.4552 35.536H60.2792C60.1672 35.136 59.9472 34.82 59.6192 34.588C59.2992 34.356 58.8992 34.24 58.4192 34.24C57.7952 34.24 57.2912 34.456 56.9072 34.888C56.5232 35.312 56.3312 35.916 56.3312 36.7C56.3312 37.492 56.5232 38.104 56.9072 38.536C57.2912 38.968 57.7952 39.184 58.4192 39.184C58.8992 39.184 59.2992 39.072 59.6192 38.848C59.9392 38.624 60.1592 38.304 60.2792 37.888H61.4552C61.2792 38.56 60.9272 39.1 60.3992 39.508C59.8712 39.908 59.2112 40.108 58.4192 40.108C57.7952 40.108 57.2392 39.968 56.7512 39.688C56.2712 39.408 55.8952 39.012 55.6232 38.5C55.3512 37.988 55.2152 37.388 55.2152 36.7ZM65.2403 40.108C64.7363 40.108 64.2843 40.024 63.8843 39.856C63.4843 39.68 63.1683 39.44 62.9363 39.136C62.7043 38.824 62.5763 38.468 62.5523 38.068H63.6803C63.7123 38.396 63.8643 38.664 64.1363 38.872C64.4163 39.08 64.7803 39.184 65.2283 39.184C65.6443 39.184 65.9723 39.092 66.2123 38.908C66.4523 38.724 66.5723 38.492 66.5723 38.212C66.5723 37.924 66.4443 37.712 66.1883 37.576C65.9323 37.432 65.5363 37.292 65.0003 37.156C64.5123 37.028 64.1123 36.9 63.8003 36.772C63.4963 36.636 63.2323 36.44 63.0083 36.184C62.7923 35.92 62.6843 35.576 62.6843 35.152C62.6843 34.816 62.7843 34.508 62.9843 34.228C63.1843 33.948 63.4683 33.728 63.8363 33.568C64.2043 33.4 64.6243 33.316 65.0963 33.316C65.8243 33.316 66.4123 33.5 66.8603 33.868C67.3083 34.236 67.5483 34.74 67.5803 35.38H66.4883C66.4643 35.036 66.3243 34.76 66.0683 34.552C65.8203 34.344 65.4843 34.24 65.0603 34.24C64.6683 34.24 64.3563 34.324 64.1243 34.492C63.8923 34.66 63.7763 34.88 63.7763 35.152C63.7763 35.368 63.8443 35.548 63.9803 35.692C64.1243 35.828 64.3003 35.94 64.5083 36.028C64.7243 36.108 65.0203 36.2 65.3963 36.304C65.8683 36.432 66.2523 36.56 66.5483 36.688C66.8443 36.808 67.0963 36.992 67.3043 37.24C67.5203 37.488 67.6323 37.812 67.6403 38.212C67.6403 38.572 67.5403 38.896 67.3403 39.184C67.1403 39.472 66.8563 39.7 66.4883 39.868C66.1283 40.028 65.7123 40.108 65.2403 40.108Z" fill="white"/>
<defs>
<clipPath id="clip0_118_5">
<rect width="80" height="25" fill="white"/>
</clipPath>
</defs>
</svg>
